<svg width="142" height="50" viewBox="0 0 142 50" fill="none" xmlns="http://www.w3.org/2000/svg">
<g clip-path="url(#clip0_7010_261)">
<path d="M31.573 25.1483C31.0354 25.3151 30.5938 25.2721 30.2463 25.0194C28.5586 23.7886 29.966 22.2586 31.1833 21.3165C32.1682 20.5533 33.1513 19.7866 34.1324 19.0164C35.7664 17.7323 36.8416 16.1301 37.3619 14.2116C37.3811 14.1394 37.3312 14.0655 37.2486 14.0483C37.2352 14.0449 37.2237 14.0449 37.2102 14.0449C36.375 14.0707 34.9945 14.2632 34.3398 13.6907C33.6947 13.1252 33.6582 12.0422 34.1747 11.4061C34.5184 10.9815 35.056 10.7615 35.7856 10.746C36.9088 10.7219 38.032 10.7099 39.1552 10.7116C39.2186 10.7116 39.2627 10.6858 39.2877 10.6325C40.1076 8.88767 40.9524 7.15828 41.8221 5.44093C42.5498 4.00207 43.7095 2.07155 45.9099 2.69901C47.4939 3.14941 47.2846 4.69142 46.7816 5.77615C46.1768 7.08092 45.5777 8.3857 44.9825 9.69391C44.8788 9.92255 44.8347 10.1443 44.85 10.3558C44.8558 10.4176 44.8923 10.4555 44.9595 10.4675C46.1557 10.6807 47.108 10.6772 47.0465 12.0955C46.9601 14.0139 44.8827 13.983 43.2891 14.0019C42.5038 14.0105 42.2618 14.3216 41.993 14.9199C41.1137 16.8796 40.2708 18.8325 39.2071 20.7424C38.4583 22.0867 37.6461 23.4258 37.1738 24.8888C37.143 24.9816 37.2026 25.0779 37.3062 25.1037C37.337 25.1122 37.3696 25.1122 37.4003 25.1071C37.6595 25.0555 37.9206 24.9627 38.1799 24.8286C40.7201 23.5221 43.1162 22.0317 45.3704 20.3573C46.1633 19.7677 46.843 19.0989 47.4113 18.3511C47.805 17.8337 48.237 17.0292 48.7112 15.9341C50.157 12.594 51.6181 9.26242 53.0966 5.93602C53.6764 4.63297 54.2985 3.12191 55.007 1.8687C55.6252 0.777095 56.7657 -0.0222729 58.2941 0.21324C59.7514 0.438438 60.3773 1.2189 60.1719 2.55117C59.9703 3.84735 59.3136 4.92177 58.7165 6.12856C56.1648 11.2772 53.6572 16.4413 51.19 21.6225C50.9922 22.0403 50.5525 22.8414 49.8709 24.0258C49.5906 24.5123 49.6808 25.0658 50.4469 25.0297C50.7484 25.016 51.2476 24.8183 51.9407 24.4384C53.1503 23.7748 54.4118 22.9823 55.7232 22.0609C55.871 21.956 55.9632 21.8598 55.9977 21.7687C56.4009 20.7269 57.0365 19.8124 57.9062 19.0267C62.0132 15.3118 67.1627 13.0323 73.1436 13.622C74.2956 13.7354 77.2755 14.277 77.2198 15.7193C77.1756 16.8865 76.135 17.2406 75.0867 17.5587C74.983 17.5896 74.9273 17.6893 74.9618 17.7821C74.9657 17.7924 74.9695 17.801 74.9753 17.8114C75.2364 18.2411 75.223 18.6864 74.933 19.1471C74.167 20.3659 73.3106 21.5314 72.3641 22.6437C72.0568 23.0064 71.8034 23.3983 71.6018 23.8195C71.5231 23.9863 71.6095 24.1771 71.7957 24.2493C71.8034 24.2527 71.8111 24.2544 71.8188 24.2562C72.8901 24.5914 77.7574 20.8197 78.7097 20.0822C79.5488 19.4324 80.2573 18.774 80.8314 18.107C82.0948 16.6424 81.9604 13.9159 84.6791 13.8592C85.7582 13.8369 87.6052 14.1566 87.4228 15.439C87.3902 15.6625 87.1848 16.0648 86.8046 16.6475C86.3054 17.4125 85.9252 18.2274 85.6641 19.0921C85.6372 19.1849 85.6679 19.2038 85.7543 19.1488C88.066 17.7185 90.3778 16.3003 92.6914 14.8941C94.1468 14.0088 95.8902 12.814 97.455 13.6306C99.9222 14.9199 98.0425 17.3782 96.95 18.8308C95.8268 20.3246 94.9954 21.9337 94.4521 23.6596C94.4386 23.706 94.4693 23.7525 94.5193 23.7645C94.5423 23.7697 94.5653 23.7679 94.5865 23.7593C97.0671 22.6419 99.0755 21.0862 101.161 19.3345C103.075 17.7254 104.661 15.9685 105.273 13.6667C105.285 13.6271 105.258 13.5893 105.214 13.579C105.206 13.579 105.2 13.5773 105.193 13.5773C103.735 13.622 101.815 14.0242 101.702 12.0886C101.556 9.60452 105.458 10.1168 107.08 10.0841C107.147 10.0841 107.191 10.0549 107.216 9.9999C108.105 7.98687 109.273 5.02835 110.809 2.9053C111.663 1.7243 112.794 1.50598 114.2 2.25034C115.409 2.88983 115.319 4.15335 114.858 5.17104C114.169 6.69241 113.474 8.19488 112.773 9.67844C112.688 9.85722 112.754 9.96037 112.967 9.98959C113.721 10.0893 114.422 10.0446 114.827 10.7649C115.509 11.9734 114.956 13.3297 113.309 13.4552C112.52 13.5137 111.715 13.5309 110.891 13.5051C110.761 13.5016 110.644 13.5739 110.6 13.6839C109.204 17.2028 107.351 20.5086 105.483 23.8573C105.377 24.0481 105.316 24.2476 105.3 24.459C105.296 24.5037 105.333 24.5432 105.385 24.5467C105.392 24.5467 105.402 24.5467 105.41 24.5467C105.684 24.4968 105.97 24.3988 106.266 24.2527C107.508 23.639 108.405 23.1972 108.952 22.9273C112.45 21.1928 114.941 18.6898 116.807 15.5697C117.275 14.7875 117.627 14.3027 117.861 14.1188C118.79 13.383 120.109 13.5034 121.221 13.9263C122.945 14.5812 121.196 17.2406 120.628 18.1156C119.766 19.4393 118.911 20.7682 118.068 22.1022C117.794 22.5354 117.6 22.9686 117.485 23.4035C117.456 23.5084 117.529 23.6149 117.648 23.6407C117.688 23.6493 117.73 23.6476 117.769 23.6356C118.481 23.4241 118.942 23.125 119.533 22.764C123.623 20.2628 127.206 17.2389 130.677 14.1085C130.814 13.9864 130.9 13.8266 130.927 13.6546C131.173 12.0645 132.064 10.6755 133.747 10.0137C135.109 9.47731 136.766 9.62171 137.169 11.1053C137.609 12.7229 136.624 14.0638 135.391 15.133C135.281 15.2293 135.228 15.4064 135.226 15.6642C135.22 16.8435 135.136 18.0331 135.099 19.2124C135.059 20.5189 134.788 21.6982 134.523 22.9651C134.483 23.1594 134.569 23.278 134.786 23.321C134.953 23.3536 135.159 23.3089 135.404 23.1886C136.301 22.7502 137.213 22.1744 138.137 21.4627C138.826 20.9315 139.968 20.414 140.777 21.2014C142.025 22.4133 140.702 23.9226 139.492 24.7805C135.604 27.5413 130.702 29.1469 125.804 29.5389C123.79 29.7004 120.966 29.501 121.05 27.0049C121.06 26.7591 121.081 26.5236 121.116 26.2984C121.121 26.2692 121.098 26.24 121.064 26.2365C121.048 26.2348 121.033 26.2365 121.019 26.2451C118.931 27.5379 115.697 29.2363 113.132 29.4048C112.408 29.4529 111.172 29.1349 110.799 28.4851C110.517 27.9934 110.884 27.3041 110.88 26.9156C110.87 26.1368 109.807 26.6663 109.363 26.9104C107.418 27.9779 104.805 29.6282 102.67 29.8328C101.153 29.9789 98.5782 29.2793 99.0448 27.4416C99.1696 26.9585 99.3232 26.4652 99.5056 25.958C99.5632 25.7999 99.4672 25.628 99.2905 25.5764C99.231 25.5592 99.1676 25.5575 99.1062 25.5695C98.87 25.6194 98.6262 25.7174 98.3708 25.8652C96.0879 27.1958 90.9941 30.878 88.1774 28.8306C86.0635 27.2955 89.1893 23.486 90.2741 21.9251C90.445 21.681 90.5294 21.4059 90.5275 21.1017C90.5275 21.0518 90.4814 21.0105 90.4258 21.0105C90.42 21.0105 90.4142 21.0105 90.4085 21.0105C90.036 21.0724 89.6731 21.2186 89.3198 21.4489C88.0238 22.293 86.9063 23.1164 85.9694 23.9158C84.1127 25.5008 82.3501 27.2044 80.2995 28.5951C79.0169 29.4649 77.3292 30.2626 76.11 28.7257C75.6492 28.1447 75.9641 27.5482 76.1523 26.9396C76.2156 26.7368 76.1311 26.6199 75.8988 26.5872C75.5167 26.5339 75.1174 26.6319 74.6988 26.8829C72.245 28.3527 69.6798 30.1354 66.8132 29.4426C66.2372 29.3033 65.7457 28.9784 65.3406 28.4644C65.2983 28.4111 65.2484 28.4025 65.1889 28.4386C63.674 29.3463 61.4506 30.1457 59.6611 29.8689C57.7161 29.5681 56.2569 28.1945 55.75 26.5219C55.7404 26.4944 55.7097 26.4789 55.679 26.4858C55.6732 26.4858 55.6694 26.4892 55.6636 26.4927C53.3711 27.8249 42.6247 33.4996 44.1204 26.1059C44.1358 26.0268 44.0782 25.9512 43.9899 25.9357C43.963 25.9305 43.9361 25.9322 43.9092 25.9408C43.5847 26.0388 43.2526 26.1798 42.9127 26.3672C40.3764 27.7596 38.2279 29.4323 35.223 29.9996C31.0124 30.7938 30.3154 28.0931 31.671 25.2395C31.7151 25.1449 31.6825 25.114 31.573 25.1483ZM70.2309 17.1839C67.4334 17.1444 64.3806 19.0061 62.3434 20.5963C60.5597 21.987 59.1408 23.7095 60.8151 25.7552C60.9245 25.8875 61.1069 25.9494 61.2855 25.9168C62.1245 25.7569 62.8196 25.2085 63.4225 24.6997C66.0932 22.4494 68.4722 20.1957 70.3231 17.33C70.3519 17.2836 70.3346 17.2234 70.2808 17.1959C70.2655 17.1873 70.2482 17.1839 70.2309 17.1839ZM128.949 24.3043C129.425 23.0047 129.685 21.6896 129.727 20.3573C129.729 20.292 129.7 20.2782 129.64 20.316C127.457 21.6827 125.386 23.0889 123.425 24.5312C123.147 24.7358 122.888 24.9541 122.644 25.1862C122.619 25.2102 122.619 25.2481 122.646 25.2704C122.653 25.2773 122.663 25.2824 122.675 25.2859C124.005 25.6125 125.37 25.7638 126.766 25.738C127.88 25.7174 128.607 25.2395 128.949 24.3043Z" fill="#3B79C9"/>
<path d="M3.80237 21.1308C3.0094 21.0981 1.81898 21.313 1.14121 21.0293C0.574804 20.7921 0.261839 20.3847 0.204238 19.8054C-0.0645658 17.1047 4.85071 17.2594 6.57298 17.2938C6.65938 17.2938 6.74194 17.256 6.78994 17.1907C7.50995 16.2091 8.26644 15.2395 9.06325 14.282C12.7401 9.85883 17.1581 6.22128 22.2577 3.14758C24.8209 1.60042 28.5899 0.0446628 31.4681 1.22223C33.9833 2.25023 33.4572 5.2311 32.9177 7.10488C32.4895 8.59532 31.9711 10.0617 31.3625 11.5023C30.3007 14.0173 29.2792 16.546 28.2981 19.0868C27.772 20.4483 27.365 21.6981 27.075 22.8344C26.6949 24.3282 26.7102 25.939 26.5106 27.5171C26.3147 29.0677 25.5179 29.9565 23.6574 29.8722C21.8391 29.7897 21.169 28.3818 21.1652 26.9601C21.1575 25.3786 21.2266 24.1959 19.6292 23.2521C17.7879 22.1639 15.7738 21.3353 13.3872 21.0689C12.1276 20.9296 10.8623 20.8557 9.58934 20.8471C9.50294 20.8471 9.42038 20.8867 9.3743 20.952C8.15124 22.6521 7.07218 24.3918 6.13137 26.2381C5.53616 27.4105 4.60494 29.5662 3.19564 30.0149C2.33163 30.29 1.15081 29.9049 0.592084 29.341C-0.291129 28.4454 0.572884 26.7762 1.10665 25.8531C2.00139 24.3007 2.92684 22.769 3.88109 21.2597C3.90797 21.2184 3.89261 21.1669 3.84653 21.1428C3.83309 21.1359 3.81773 21.1325 3.80237 21.1308ZM12.6441 17.3368C16.223 17.6806 19.8922 18.6966 22.9182 20.4947C22.9777 20.5308 23.0161 20.5171 23.0315 20.4552C24.1873 15.9134 26.0613 11.6398 27.8546 7.27507C28.1445 6.57197 28.3384 5.90153 28.5285 5.18124C28.588 4.95261 28.4901 4.81508 28.2347 4.76523C27.6203 4.65005 25.7233 5.64883 25.1608 5.96342C21.2382 8.15523 17.9031 11.1808 14.8598 14.27C14.0323 15.1106 13.0108 16.1145 12.5231 17.1546C12.4924 17.2216 12.527 17.299 12.6038 17.3282C12.6172 17.3333 12.6307 17.3368 12.6441 17.3368Z" fill="#3B79C9"/>
<path d="M123.015 12.3858C124.272 11.3544 124.478 9.72442 123.476 8.74514C122.474 7.76587 120.642 7.80812 119.385 8.83952C118.128 9.87092 117.921 11.5009 118.924 12.4802C119.926 13.4594 121.758 13.4172 123.015 12.3858Z" fill="#3B79C9"/>
<path d="M58.5318 42.2231L62.2624 32.4777C62.272 32.4553 62.2951 32.4416 62.32 32.4416L65.0138 32.4141C65.0484 32.4141 65.0753 32.4364 65.0772 32.4674C65.0772 32.4742 65.0772 32.4811 65.0733 32.488L59.6262 45.4515C59.6166 45.4738 59.5936 45.4876 59.5686 45.4876H57.4374C57.4124 45.4876 57.3894 45.4721 57.3798 45.4515L51.7368 32.5791C51.7253 32.5499 51.7407 32.5189 51.7733 32.5086C51.781 32.5069 51.7867 32.5052 51.7944 32.5052L54.4786 32.4931C54.5055 32.4931 54.5285 32.5069 54.5381 32.5292L58.4147 42.2231C58.4243 42.2523 58.4588 42.2678 58.4915 42.2592C58.5107 42.254 58.526 42.2403 58.5318 42.2231Z" fill="#3B79C9"/>
<path d="M138.204 37.4417C136.962 36.6183 135.614 38.3253 137.242 38.7998C139.216 39.3739 141.622 39.8192 141.36 42.2585C141.101 44.6721 138.106 45.9958 135.712 45.0039C134.46 44.483 133.734 43.5221 133.534 42.121C133.523 42.0488 133.58 41.9835 133.659 41.9749C133.665 41.9749 133.671 41.9749 133.678 41.9749L136.025 41.9663C136.13 41.9663 136.222 42.0299 136.251 42.121C136.468 42.8362 137.407 43.3192 138.175 42.941C138.701 42.6832 138.976 42.0832 138.609 41.6242C138.225 41.1446 136.902 40.83 136.234 40.6564C133.892 40.0461 133.139 37.5277 134.771 35.9788C136.827 34.0259 140.69 34.98 141.046 37.7546C141.057 37.8388 140.988 37.9145 140.896 37.923C140.89 37.923 140.884 37.923 140.877 37.923H138.632C138.569 37.923 138.511 37.8904 138.482 37.8405L138.329 37.5724C138.298 37.5191 138.256 37.4761 138.204 37.4417Z" fill="#3B79C9"/>
<path d="M123.113 41.273C123.08 41.273 123.053 41.2971 123.055 41.328C123.055 41.3349 123.055 41.3418 123.059 41.3469C123.942 43.243 126.465 43.678 128.17 42.3766C128.275 42.2958 128.41 42.2529 128.55 42.2511L130.979 42.2374C131.154 42.2374 131.204 42.3079 131.127 42.4488C129.829 44.816 126.751 46.0606 123.961 45.0721C120.369 43.8 119.034 39.6657 121.588 36.9083C123.731 34.5944 127.467 34.352 129.856 36.4837C131.132 37.6234 131.685 39.1242 131.515 40.9842C131.501 41.1372 131.407 41.2145 131.236 41.2163L123.113 41.273ZM123.015 39.076C122.978 39.1465 123.005 39.1826 123.091 39.1826L128.8 39.1517C128.848 39.1517 128.886 39.1173 128.886 39.0743C128.886 39.0657 128.884 39.0554 128.88 39.0468C127.868 36.6281 124.161 36.8447 123.015 39.076Z" fill="#3B79C9"/>
<path d="M115.359 36.5029L115.336 35.5161C115.336 35.4302 115.382 35.3872 115.477 35.3872L117.631 35.382C117.686 35.382 117.715 35.4061 117.717 35.456C117.798 39.8207 117.821 42.7758 117.786 44.3212C117.725 46.9669 114.991 49.0865 112.057 49.1191C109.864 49.1449 107.551 48.0396 106.677 46.0575C106.66 46.0196 106.681 45.9767 106.723 45.9612C106.733 45.9578 106.742 45.956 106.752 45.956C107.61 45.9337 108.472 45.9268 109.338 45.9371C109.463 45.9388 109.572 45.9749 109.665 46.0454C111.819 47.6545 115.125 46.7537 115.363 44.0616C115.373 43.943 115.334 43.9293 115.248 44.0169C113.499 45.7652 111.299 45.8976 109.104 44.7166C105.009 42.511 105.738 36.331 110.628 35.2565C112.303 34.8887 114.209 35.1723 115.223 36.5424C115.317 36.6696 115.363 36.6559 115.359 36.5029ZM112.716 43.1608C114.43 42.8978 115.576 41.4005 115.273 39.8172C114.97 38.2323 113.336 37.1613 111.619 37.4243C109.905 37.6873 108.758 39.1846 109.062 40.7679C109.365 42.3529 110.999 43.4239 112.716 43.1608Z" fill="#3B79C9"/>
<path d="M101.548 44.0322C98.534 47.0526 93.5458 45.361 92.724 41.6135C92.2114 39.2738 92.9525 37.4155 94.9474 36.0385C96.8521 34.7251 99.8953 34.8971 101.389 36.6522C101.524 36.8087 101.589 36.788 101.585 36.5903L101.566 35.6001C101.566 35.5159 101.61 35.4747 101.702 35.4747L103.864 35.4643C103.931 35.4643 103.964 35.4936 103.964 35.552L104.025 45.1736C104.025 45.2012 104 45.2235 103.97 45.2252L101.821 45.2287C101.723 45.2287 101.643 45.1582 101.643 45.0705L101.648 44.0683C101.648 43.9772 101.616 43.9669 101.548 44.0339V44.0322ZM98.0655 43.2895C99.8224 43.4357 101.381 42.2495 101.548 40.6387C101.716 39.028 100.425 37.6046 98.6684 37.4602C96.9116 37.3141 95.3525 38.5002 95.1855 40.111C95.0185 41.7218 96.3087 43.1451 98.0655 43.2895Z" fill="#3B79C9"/>
<path d="M72.0476 45.6989C68.8891 45.4358 66.5678 42.9071 66.8635 40.05C67.1592 37.1929 69.9605 35.0888 73.119 35.3501C76.2774 35.6131 78.5987 38.1418 78.303 40.9989C78.0074 43.856 75.206 45.9602 72.0476 45.6989ZM72.6025 43.4434C74.342 43.4331 75.7436 42.1232 75.7302 40.5193C75.7168 38.9154 74.2979 37.6227 72.5564 37.633C70.8169 37.6433 69.4152 38.9532 69.4287 40.5571C69.4421 42.161 70.861 43.4537 72.6025 43.4434Z" fill="#3B79C9"/>
<path d="M85.3184 41.6563L87.7857 35.5931C87.7953 35.5691 87.8202 35.5536 87.8471 35.5536L90.6561 35.5312C90.6926 35.5312 90.7233 35.5588 90.7233 35.5914C90.7233 35.6 90.7214 35.6086 90.7175 35.6155L84.6675 48.5498C84.656 48.5721 84.633 48.5859 84.6061 48.5859L81.9526 48.6168C81.9161 48.6168 81.8854 48.5893 81.8854 48.5566C81.8854 48.5498 81.8854 48.5412 81.8912 48.5343L83.7997 44.4446C83.8074 44.4309 83.8074 44.4137 83.8016 44.3999L79.8175 35.6808C79.8041 35.6499 79.8214 35.6155 79.854 35.6035C79.8617 35.6 79.8694 35.6 79.879 35.5983L82.6899 35.5863C82.7187 35.5863 82.7437 35.6017 82.7533 35.6258L85.1917 41.6563C85.2032 41.6872 85.2416 41.7044 85.2781 41.6924C85.2973 41.6855 85.3127 41.6735 85.3184 41.6563Z" fill="#3B79C9"/>
</g>
<defs>
<clipPath id="clip0_7010_261">
<rect width="141.571" height="49.2909" fill="white"/>
</clipPath>
</defs>
</svg>
