<svg width="142" height="50" viewBox="0 0 142 50" fill="none" xmlns="http://www.w3.org/2000/svg">
<g clip-path="url(#clip0_7_147)">
<path d="M31.5731 25.2323C31.0355 25.3991 30.5939 25.3561 30.2464 25.1034C28.5586 23.8725 29.966 22.3426 31.1833 21.4005C32.1683 20.6373 33.1514 19.8706 34.1325 19.1004C35.7664 17.8163 36.8417 16.2141 37.362 14.2956C37.3812 14.2234 37.3313 14.1495 37.2487 14.1323C37.2353 14.1289 37.2237 14.1289 37.2103 14.1289C36.3751 14.1546 34.9946 14.3472 34.3399 13.7747C33.6947 13.2092 33.6582 12.1261 34.1747 11.4901C34.5184 11.0655 35.056 10.8454 35.7856 10.83C36.9089 10.8059 38.0321 10.7939 39.1553 10.7956C39.2186 10.7956 39.2628 10.7698 39.2878 10.7165C40.1076 8.97165 40.9524 7.24227 41.8222 5.52492C42.5499 4.08605 43.7096 2.15554 45.91 2.783C47.494 3.2334 47.2847 4.7754 46.7816 5.86013C46.1768 7.16491 45.5778 8.46968 44.9826 9.77789C44.8789 10.0065 44.8347 10.2283 44.8501 10.4397C44.8559 10.5016 44.8923 10.5394 44.9595 10.5515C46.1557 10.7646 47.108 10.7612 47.0466 12.1794C46.9602 14.0979 44.8827 14.067 43.2891 14.0859C42.5038 14.0945 42.2619 14.4056 41.9931 15.0039C41.1137 16.9636 40.2708 18.9165 39.2071 20.8264C38.4583 22.1707 37.6461 23.5098 37.1738 24.9728C37.1431 25.0656 37.2026 25.1618 37.3063 25.1876C37.337 25.1962 37.3697 25.1962 37.4004 25.1911C37.6596 25.1395 37.9207 25.0467 38.1799 24.9126C40.7201 23.6061 43.1163 22.1157 45.3704 20.4413C46.1634 19.8516 46.8431 19.1829 47.4114 18.4351C47.805 17.9177 48.237 17.1132 48.7113 16.0181C50.1571 12.678 51.6182 9.34641 53.0966 6.02001C53.6765 4.71695 54.2986 3.20589 55.007 1.95269C55.6253 0.861079 56.7658 0.0617115 58.2941 0.297224C59.7514 0.522422 60.3774 1.30288 60.1719 2.63516C59.9703 3.93134 59.3137 5.00576 58.7165 6.21254C56.1648 11.3612 53.6573 16.5252 51.19 21.7065C50.9923 22.1243 50.5526 22.9253 49.871 24.1098C49.5906 24.5963 49.6809 25.1498 50.447 25.1137C50.7484 25.1 51.2476 24.9023 51.9408 24.5224C53.1504 23.8588 54.4118 23.0663 55.7232 22.1449C55.8711 22.04 55.9632 21.9438 55.9978 21.8526C56.401 20.8109 57.0365 19.8963 57.9063 19.1107C62.0132 15.3958 67.1628 13.1163 73.1436 13.706C74.2957 13.8194 77.2755 14.3609 77.2199 15.8032C77.1757 16.9705 76.135 17.3246 75.0867 17.6426C74.983 17.6736 74.9273 17.7733 74.9619 17.8661C74.9658 17.8764 74.9696 17.885 74.9753 17.8953C75.2365 18.3251 75.223 18.7703 74.9331 19.2311C74.167 20.4499 73.3107 21.6154 72.3641 22.7276C72.0569 23.0904 71.8035 23.4823 71.6019 23.9035C71.5231 24.0702 71.6095 24.2611 71.7958 24.3333C71.8035 24.3367 71.8111 24.3384 71.8188 24.3401C72.8902 24.6754 77.7575 20.9037 78.7098 20.1662C79.5489 19.5164 80.2573 18.858 80.8314 18.191C82.0948 16.7264 81.9604 13.9999 84.6792 13.9432C85.7582 13.9209 87.6053 14.2406 87.4229 15.523C87.3903 15.7465 87.1848 16.1488 86.8046 16.7315C86.3054 17.4965 85.9253 18.3114 85.6642 19.176C85.6373 19.2689 85.668 19.2878 85.7544 19.2328C88.0661 17.8025 90.3778 16.3843 92.6915 14.9781C94.1468 14.0928 95.8902 12.898 97.455 13.7146C99.9223 15.0039 98.0426 17.4621 96.9501 18.9148C95.8269 20.4086 94.9955 22.0177 94.4521 23.7436C94.4387 23.79 94.4694 23.8364 94.5193 23.8485C94.5424 23.8536 94.5654 23.8519 94.5865 23.8433C97.0672 22.7259 99.0756 21.1702 101.161 19.4184C103.075 17.8094 104.661 16.0525 105.273 13.7507C105.285 13.7111 105.258 13.6733 105.214 13.663C105.206 13.663 105.2 13.6613 105.193 13.6613C103.735 13.706 101.815 14.1082 101.702 12.1726C101.556 9.6885 105.458 10.2008 107.08 10.1681C107.147 10.1681 107.192 10.1389 107.216 10.0839C108.105 8.07086 109.273 5.11234 110.809 2.98929C111.663 1.80829 112.794 1.58996 114.2 2.33432C115.409 2.97382 115.319 4.23733 114.858 5.25502C114.169 6.7764 113.474 8.27886 112.773 9.76242C112.689 9.94121 112.754 10.0443 112.967 10.0736C113.722 10.1733 114.422 10.1286 114.827 10.8489C115.509 12.0574 114.956 13.4137 113.309 13.5392C112.52 13.5977 111.715 13.6149 110.891 13.5891C110.761 13.5856 110.644 13.6578 110.6 13.7679C109.204 17.2868 107.351 20.5926 105.483 23.9413C105.377 24.1321 105.316 24.3315 105.3 24.543C105.296 24.5877 105.333 24.6272 105.385 24.6307C105.392 24.6307 105.402 24.6307 105.41 24.6307C105.684 24.5808 105.97 24.4828 106.266 24.3367C107.508 23.723 108.405 23.2812 108.952 23.0113C112.45 21.2768 114.941 18.7738 116.807 15.6537C117.276 14.8715 117.627 14.3867 117.861 14.2028C118.79 13.467 120.109 13.5874 121.221 14.0102C122.945 14.6652 121.196 17.3246 120.628 18.1996C119.766 19.5233 118.911 20.8521 118.068 22.1861C117.794 22.6193 117.6 23.0526 117.485 23.4875C117.456 23.5923 117.529 23.6989 117.648 23.7247C117.688 23.7333 117.731 23.7316 117.769 23.7196C118.481 23.5081 118.942 23.209 119.533 22.848C123.623 20.3467 127.206 17.3229 130.677 14.1925C130.814 14.0704 130.9 13.9105 130.927 13.7386C131.173 12.1485 132.064 10.7595 133.747 10.0976C135.109 9.56129 136.766 9.70569 137.169 11.1892C137.609 12.8069 136.624 14.1478 135.391 15.217C135.282 15.3133 135.228 15.4904 135.226 15.7482C135.22 16.9275 135.136 18.1171 135.099 19.2964C135.059 20.6029 134.788 21.7822 134.523 23.0491C134.483 23.2434 134.569 23.362 134.786 23.405C134.953 23.4376 135.159 23.3929 135.404 23.2726C136.301 22.8342 137.213 22.2583 138.137 21.5466C138.826 21.0155 139.968 20.498 140.777 21.2853C142.025 22.4973 140.702 24.0066 139.492 24.8645C135.604 27.6253 130.702 29.2309 125.804 29.6228C123.79 29.7844 120.966 29.585 121.05 27.0889C121.06 26.8431 121.081 26.6076 121.116 26.3824C121.121 26.3532 121.098 26.3239 121.064 26.3205C121.048 26.3188 121.033 26.3205 121.02 26.3291C118.931 27.6218 115.697 29.3203 113.132 29.4887C112.408 29.5369 111.172 29.2189 110.799 28.569C110.517 28.0774 110.884 27.388 110.88 26.9995C110.87 26.2208 109.807 26.7503 109.363 26.9944C107.418 28.0619 104.805 29.7122 102.67 29.9168C101.153 30.0629 98.5783 29.3633 99.0448 27.5256C99.1696 27.0425 99.3232 26.5491 99.5056 26.042C99.5632 25.8839 99.4672 25.712 99.2906 25.6604C99.2311 25.6432 99.1677 25.6415 99.1063 25.6535C98.8701 25.7034 98.6263 25.8013 98.3709 25.9492C96.088 27.2797 90.9941 30.962 88.1775 28.9146C86.0635 27.3795 89.1893 23.57 90.2741 22.0091C90.445 21.765 90.5295 21.4899 90.5276 21.1856C90.5276 21.1358 90.4815 21.0945 90.4258 21.0945C90.4201 21.0945 90.4143 21.0945 90.4085 21.0945C90.0361 21.1564 89.6732 21.3025 89.3199 21.5329C88.0239 22.377 86.9064 23.2004 85.9694 23.9998C84.1128 25.5847 82.3502 27.2883 80.2996 28.6791C79.017 29.5489 77.3293 30.3466 76.1101 28.8097C75.6493 28.2287 75.9642 27.6322 76.1523 27.0236C76.2157 26.8208 76.1312 26.7039 75.8989 26.6712C75.5168 26.6179 75.1174 26.7159 74.6989 26.9669C72.2451 28.4367 69.6799 30.2194 66.8133 29.5266C66.2373 29.3873 65.7458 29.0624 65.3406 28.5484C65.2984 28.4951 65.2485 28.4865 65.189 28.5226C63.6741 29.4303 61.4507 30.2297 59.6612 29.9529C57.7162 29.6521 56.257 28.2785 55.7501 26.6059C55.7405 26.5784 55.7098 26.5629 55.6791 26.5698C55.6733 26.5698 55.6695 26.5732 55.6637 26.5766C53.3712 27.9089 42.6248 33.5836 44.1205 26.1899C44.1358 26.1108 44.0782 26.0351 43.9899 26.0197C43.963 26.0145 43.9362 26.0162 43.9093 26.0248C43.5848 26.1228 43.2526 26.2638 42.9128 26.4512C40.3764 27.8436 38.2279 29.5163 35.2231 30.0835C31.0124 30.8778 30.3155 28.1771 31.671 25.3234C31.7152 25.2289 31.6825 25.1979 31.5731 25.2323ZM70.231 17.2679C67.4335 17.2283 64.3806 19.0901 62.3435 20.6802C60.5598 22.071 59.1409 23.7935 60.8151 25.8392C60.9246 25.9715 61.107 26.0334 61.2855 26.0008C62.1246 25.8409 62.8196 25.2925 63.4225 24.7837C66.0933 22.5334 68.4722 20.2797 70.3231 17.414C70.3519 17.3676 70.3346 17.3074 70.2809 17.2799C70.2655 17.2713 70.2482 17.2679 70.231 17.2679ZM128.949 24.3883C129.425 23.0887 129.685 21.7736 129.727 20.4413C129.729 20.376 129.7 20.3622 129.64 20.4C127.457 21.7667 125.386 23.1729 123.425 24.6152C123.147 24.8198 122.888 25.0381 122.644 25.2702C122.619 25.2942 122.619 25.332 122.646 25.3544C122.654 25.3613 122.663 25.3664 122.675 25.3699C124.005 25.6965 125.37 25.8478 126.766 25.822C127.88 25.8013 128.608 25.3234 128.949 24.3883Z" fill="white"/>
<path d="M3.80234 21.2129C3.00937 21.1802 1.81895 21.3951 1.14118 21.1114C0.574773 20.8742 0.261809 20.4668 0.204208 19.8875C-0.0645963 17.1868 4.85068 17.3415 6.57294 17.3759C6.65935 17.3759 6.74191 17.3381 6.78991 17.2728C7.50992 16.2912 8.26641 15.3216 9.06322 14.3641C12.7401 9.94092 17.1581 6.30337 22.2577 3.22968C24.8209 1.68251 28.5899 0.126755 31.468 1.30432C33.9833 2.33232 33.4572 5.31319 32.9177 7.18697C32.4895 8.67741 31.9711 10.1438 31.3624 11.5844C30.3007 14.0994 29.2792 16.6281 28.2981 19.1689C27.772 20.5304 27.3649 21.7802 27.075 22.9165C26.6948 24.4103 26.7102 26.0211 26.5105 27.5992C26.3147 29.1498 25.5179 30.0386 23.6574 29.9543C21.8391 29.8718 21.169 28.4639 21.1652 27.0422C21.1575 25.4607 21.2266 24.278 19.6291 23.3342C17.7878 22.246 15.7737 21.4174 13.3871 21.151C12.1276 21.0117 10.8623 20.9378 9.58931 20.9292C9.50291 20.9292 9.42035 20.9688 9.37427 21.0341C8.15121 22.7342 7.07215 24.4739 6.13134 26.3202C5.53613 27.4926 4.60491 29.6483 3.19561 30.097C2.3316 30.3721 1.15078 29.987 0.592054 29.4231C-0.29116 28.5275 0.572853 26.8583 1.10662 25.9351C2.00136 24.3828 2.92681 22.8511 3.88106 21.3418C3.90794 21.3005 3.89258 21.249 3.8465 21.2249C3.83306 21.218 3.8177 21.2146 3.80234 21.2129ZM12.6441 17.4189C16.223 17.7627 19.8922 18.7787 22.9182 20.5768C22.9777 20.6129 23.0161 20.5992 23.0314 20.5373C24.1873 15.9955 26.0612 11.7219 27.8545 7.35716C28.1445 6.65406 28.3384 5.98362 28.5285 5.26333C28.588 5.0347 28.4901 4.89717 28.2347 4.84732C27.6203 4.73214 25.7233 5.73092 25.1607 6.04551C21.2381 8.23733 17.903 11.2629 14.8598 14.3521C14.0323 15.1927 13.0108 16.1966 12.5231 17.2367C12.4924 17.3037 12.527 17.3811 12.6038 17.4103C12.6172 17.4154 12.6306 17.4189 12.6441 17.4189Z" fill="white"/>
<path d="M123.015 12.4708C124.272 11.4394 124.478 9.80938 123.476 8.8301C122.474 7.85083 120.642 7.89308 119.385 8.92448C118.128 9.95588 117.921 11.5859 118.924 12.5651C119.926 13.5444 121.757 13.5022 123.015 12.4708Z" fill="white"/>
<path d="M58.5318 42.3076L62.2624 32.5622C62.272 32.5398 62.2951 32.5261 62.32 32.5261L65.0138 32.4986C65.0484 32.4986 65.0753 32.5209 65.0772 32.5519C65.0772 32.5587 65.0772 32.5656 65.0734 32.5725L59.6262 45.536C59.6166 45.5583 59.5936 45.5721 59.5686 45.5721H57.4374C57.4124 45.5721 57.3894 45.5566 57.3798 45.536L51.7368 32.6636C51.7253 32.6344 51.7407 32.6034 51.7733 32.5931C51.781 32.5914 51.7868 32.5897 51.7944 32.5897L54.4786 32.5776C54.5055 32.5776 54.5286 32.5914 54.5382 32.6137L58.4147 42.3076C58.4243 42.3368 58.4589 42.3523 58.4915 42.3437C58.5107 42.3385 58.5261 42.3248 58.5318 42.3076Z" fill="white"/>
<path d="M138.204 37.5255C136.962 36.702 135.614 38.4091 137.242 38.8835C139.216 39.4577 141.622 39.903 141.36 42.3423C141.101 44.7559 138.106 46.0796 135.712 45.0877C134.46 44.5668 133.734 43.6058 133.534 42.2048C133.523 42.1326 133.581 42.0673 133.659 42.0587C133.665 42.0587 133.671 42.0587 133.678 42.0587L136.025 42.0501C136.13 42.0501 136.222 42.1137 136.251 42.2048C136.468 42.9199 137.407 43.403 138.175 43.0248C138.701 42.7669 138.976 42.167 138.609 41.708C138.225 41.2284 136.902 40.9138 136.234 40.7401C133.892 40.1299 133.139 37.6114 134.771 36.0626C136.827 34.1097 140.69 35.0638 141.046 37.8383C141.057 37.9226 140.988 37.9982 140.896 38.0068C140.89 38.0068 140.884 38.0068 140.877 38.0068H138.632C138.569 38.0068 138.511 37.9742 138.482 37.9243L138.329 37.6561C138.298 37.6028 138.256 37.5599 138.204 37.5255Z" fill="white"/>
<path d="M123.112 41.3586C123.08 41.3586 123.053 41.3827 123.055 41.4136C123.055 41.4205 123.055 41.4274 123.059 41.4325C123.942 43.3287 126.465 43.7636 128.17 42.4623C128.275 42.3815 128.41 42.3385 128.55 42.3368L130.979 42.323C131.154 42.323 131.203 42.3935 131.127 42.5345C129.829 44.9016 126.751 46.1462 123.961 45.1578C120.369 43.8857 119.034 39.7513 121.588 36.9939C123.731 34.68 127.467 34.4376 129.856 36.5693C131.132 37.709 131.685 39.2098 131.515 41.0698C131.501 41.2228 131.407 41.3002 131.236 41.3019L123.112 41.3586ZM123.015 39.1616C122.978 39.2321 123.005 39.2682 123.091 39.2682L128.8 39.2373C128.848 39.2373 128.886 39.2029 128.886 39.1599C128.886 39.1513 128.884 39.141 128.88 39.1324C127.868 36.7137 124.161 36.9303 123.015 39.1616Z" fill="white"/>
<path d="M115.359 36.5868L115.336 35.6001C115.336 35.5141 115.382 35.4711 115.477 35.4711L117.631 35.466C117.687 35.466 117.715 35.49 117.717 35.5399C117.798 39.9046 117.821 42.8597 117.786 44.4051C117.725 47.0508 114.991 49.1704 112.057 49.2031C109.864 49.2288 107.551 48.1235 106.677 46.1414C106.66 46.1036 106.681 46.0606 106.723 46.0451C106.733 46.0417 106.742 46.04 106.752 46.04C107.61 46.0176 108.472 46.0107 109.338 46.0211C109.463 46.0228 109.572 46.0589 109.665 46.1294C111.819 47.7384 115.125 46.8376 115.363 44.1455C115.373 44.0269 115.334 44.0132 115.248 44.1009C113.499 45.8491 111.299 45.9815 109.104 44.8005C105.009 42.5949 105.738 36.4149 110.628 35.3405C112.303 34.9726 114.209 35.2562 115.223 36.6263C115.317 36.7535 115.363 36.7398 115.359 36.5868ZM112.716 43.2448C114.43 42.9817 115.576 41.4844 115.273 39.9012C114.97 38.3162 113.336 37.2452 111.619 37.5082C109.905 37.7712 108.758 39.2685 109.062 40.8518C109.365 42.4368 110.999 43.5078 112.716 43.2448Z" fill="white"/>
<path d="M101.548 44.1164C98.534 47.1368 93.5458 45.4452 92.724 41.6976C92.2113 39.358 92.9525 37.4997 94.9474 36.1227C96.852 34.8093 99.8953 34.9812 101.389 36.7364C101.523 36.8928 101.589 36.8722 101.585 36.6745L101.566 35.6843C101.566 35.6001 101.61 35.5588 101.702 35.5588L103.864 35.5485C103.931 35.5485 103.964 35.5777 103.964 35.6362L104.025 45.2578C104.025 45.2853 104 45.3077 103.97 45.3094L101.821 45.3128C101.723 45.3128 101.643 45.2423 101.643 45.1547L101.648 44.1525C101.648 44.0613 101.616 44.051 101.548 44.1181V44.1164ZM98.0655 43.3737C99.8223 43.5198 101.381 42.3337 101.548 40.7229C101.715 39.1121 100.425 37.6888 98.6684 37.5443C96.9116 37.3982 95.3525 38.5844 95.1855 40.1952C95.0184 41.8059 96.3087 43.2293 98.0655 43.3737Z" fill="white"/>
<path d="M72.0476 45.7837C68.8892 45.5206 66.5678 42.9919 66.8635 40.1348C67.1592 37.2777 69.9605 35.1736 73.119 35.4349C76.2774 35.6979 78.5987 38.2266 78.3031 41.0837C78.0074 43.9408 75.206 46.045 72.0476 45.7837ZM72.6025 43.5282C74.342 43.5179 75.7437 42.208 75.7302 40.6041C75.7168 39.0002 74.2979 37.7075 72.5564 37.7178C70.8169 37.7281 69.4152 39.038 69.4287 40.6419C69.4421 42.2458 70.861 43.5386 72.6025 43.5282Z" fill="white"/>
<path d="M85.3185 41.7404L87.7857 35.6772C87.7953 35.6532 87.8203 35.6377 87.8471 35.6377L90.6561 35.6154C90.6926 35.6154 90.7233 35.6429 90.7233 35.6755C90.7233 35.6841 90.7214 35.6927 90.7176 35.6996L84.6676 48.6339C84.656 48.6562 84.633 48.67 84.6061 48.67L81.9526 48.7009C81.9162 48.7009 81.8854 48.6734 81.8854 48.6407C81.8854 48.6339 81.8854 48.6253 81.8912 48.6184L83.7997 44.5287C83.8074 44.515 83.8074 44.4978 83.8016 44.484L79.8176 35.7649C79.8041 35.734 79.8214 35.6996 79.8541 35.6876C79.8617 35.6841 79.8694 35.6841 79.879 35.6824L82.6899 35.6704C82.7187 35.6704 82.7437 35.6858 82.7533 35.7099L85.1917 41.7404C85.2033 41.7713 85.2417 41.7885 85.2781 41.7765C85.2973 41.7696 85.3127 41.7576 85.3185 41.7404Z" fill="white"/>
</g>
<defs>
<clipPath id="clip0_7_147">
<rect width="141.571" height="49.2909" fill="white" transform="translate(0 0.0839233)"/>
</clipPath>
</defs>
</svg>
